<?xml version="1.0" encoding="UTF-8"?>
<svg version="1.1" xmlns="http://www.w3.org/2000/svg" width="1080" height="1080">
<path d="M0 0 C356.4 0 712.8 0 1080 0 C1080 356.4 1080 712.8 1080 1080 C723.6 1080 367.2 1080 0 1080 C0 723.6 0 367.2 0 0 Z " fill="#F3F3F5" transform="translate(0,0)"/>
<path d="M0 0 C1.22878014 -0.00311998 2.45756028 -0.00623996 3.72357619 -0.00945449 C7.12233738 -0.01603947 10.52087673 -0.01368576 13.91962433 -0.00748205 C17.58979038 -0.00295082 21.25993726 -0.00994472 24.93009949 -0.01544189 C32.11578714 -0.0243309 39.30143299 -0.02241592 46.48712228 -0.01661661 C52.32879652 -0.01209749 58.17045906 -0.01148831 64.01213455 -0.01366425 C65.25988975 -0.01412394 65.25988975 -0.01412394 66.53285212 -0.01459293 C68.2228068 -0.01523239 69.91276149 -0.01588082 71.60271616 -0.01653811 C87.44684505 -0.02224015 103.29095079 -0.01568587 119.13507588 -0.00493738 C132.72211175 0.00399472 146.30911343 0.00244865 159.89614868 -0.0067749 C175.68098247 -0.01748545 191.46579597 -0.02168737 207.25063288 -0.01555037 C208.93493755 -0.01491329 210.61924223 -0.01428455 212.30354691 -0.01366425 C213.13221277 -0.01335569 213.96087864 -0.01304714 214.81465559 -0.01272924 C220.64646538 -0.01100441 226.47826226 -0.01391291 232.31007004 -0.01862335 C239.42134429 -0.02424104 246.53257442 -0.02269721 253.64384364 -0.01206186 C257.27025912 -0.00681659 260.89660109 -0.0047288 264.52301598 -0.01136017 C268.45850051 -0.01844767 272.39386548 -0.00996722 276.3293457 0 C277.46953073 -0.00446144 278.60971575 -0.00892289 279.78445184 -0.01351953 C286.10059967 0.0174961 291.67993986 0.63759132 297.79165649 2.25396729 C297.79165649 2.91396729 297.79165649 3.57396729 297.79165649 4.25396729 C298.45165649 4.25396729 299.11165649 4.25396729 299.79165649 4.25396729 C299.79165649 4.91396729 299.79165649 5.57396729 299.79165649 6.25396729 C300.43103149 6.52209229 301.07040649 6.79021729 301.72915649 7.06646729 C303.79165649 8.25396729 303.79165649 8.25396729 304.79165649 11.25396729 C305.45165649 11.25396729 306.11165649 11.25396729 306.79165649 11.25396729 C306.79165649 12.24396729 306.79165649 13.23396729 306.79165649 14.25396729 C307.45165649 14.25396729 308.11165649 14.25396729 308.79165649 14.25396729 C308.79165649 79.92396729 308.79165649 145.59396729 308.79165649 213.25396729 C308.13165649 213.25396729 307.47165649 213.25396729 306.79165649 213.25396729 C306.79165649 214.57396729 306.79165649 215.89396729 306.79165649 217.25396729 C306.13165649 217.25396729 305.47165649 217.25396729 304.79165649 217.25396729 C304.52353149 217.81084229 304.25540649 218.36771729 303.97915649 218.94146729 C303.58728149 219.70459229 303.19540649 220.46771729 302.79165649 221.25396729 C302.39978149 222.09959229 302.00790649 222.94521729 301.60415649 223.81646729 C299.18918699 227.06418489 296.60594793 228.22462019 292.79165649 229.25396729 C288.69016782 229.67859485 284.61429545 229.6502306 280.493927 229.62145996 C278.63638943 229.62636322 278.63638943 229.62636322 276.74132586 229.63136554 C273.31579155 229.63737773 269.890767 229.62997037 266.46528459 229.6168232 C262.7665288 229.60590479 259.06779759 229.61234144 255.36903381 229.61660767 C248.12784123 229.62223657 240.88675469 229.61193465 233.64558017 229.59631971 C225.21124148 229.57876866 216.77692327 229.57736019 208.34256917 229.57670411 C193.29253503 229.57501656 178.24254913 229.55920803 163.1925354 229.53521729 C148.59194539 229.51195987 133.99138597 229.49779245 119.39077759 229.49420166 C118.49151481 229.49397889 117.59225204 229.49375613 116.66573888 229.49352661 C114.85412366 229.493084 113.04250844 229.49264198 111.23089322 229.49220054 C110.3372138 229.49198097 109.44353437 229.49176141 108.52277374 229.49153519 C107.63133656 229.4913192 106.73989938 229.49110321 105.82144895 229.49088068 C91.90284983 229.48717805 77.98425564 229.47581849 64.06566194 229.46340479 C59.02301914 229.4589728 53.9803768 229.45553316 48.93773282 229.45278266 C40.93852099 229.44834646 32.93932736 229.44055995 24.94012702 229.42600825 C21.28562707 229.41941077 17.63114311 229.41433687 13.97663689 229.41354752 C10.01420339 229.41261343 6.0518087 229.40391599 2.08938599 229.39440918 C0.93559338 229.39527566 -0.21819922 229.39614214 -1.40695524 229.39703488 C-6.7813033 229.3776528 -11.91482117 229.20597152 -17.20834351 228.25396729 C-17.20834351 227.59396729 -17.20834351 226.93396729 -17.20834351 226.25396729 C-18.07459351 225.88271729 -18.07459351 225.88271729 -18.95834351 225.50396729 C-21.55743009 224.06003029 -23.28671188 222.51874741 -25.20834351 220.25396729 C-25.20834351 219.26396729 -25.20834351 218.27396729 -25.20834351 217.25396729 C-26.52834351 216.92396729 -27.84834351 216.59396729 -29.20834351 216.25396729 C-29.27838483 189.8724277 -29.33130778 163.49090201 -29.36378002 137.10928822 C-29.37925733 124.86020108 -29.4003634 112.61117167 -29.43466187 100.36212158 C-29.46453772 89.68744722 -29.48391222 79.01281466 -29.49060899 68.33809966 C-29.49452431 62.68447711 -29.5037439 57.03097417 -29.52553368 51.37738991 C-29.5458701 46.05788155 -29.55218303 40.73854226 -29.54766655 35.41899872 C-29.54849302 33.46505757 -29.55447553 31.51111087 -29.56595993 29.55720329 C-29.58085949 26.89189514 -29.57730638 24.22722751 -29.56910706 21.56190491 C-29.57784558 20.78660661 -29.5865841 20.01130831 -29.59558743 19.21251613 C-29.54972042 13.70611693 -28.29972009 10.54723418 -24.63021851 6.52349854 C-23.80264038 5.80226807 -23.80264038 5.80226807 -22.95834351 5.06646729 C-22.14623413 4.33363525 -22.14623413 4.33363525 -21.31771851 3.58599854 C-14.78899058 -0.53677225 -7.44587842 -0.02902151 0 0 Z " fill="#F2F2F4" transform="translate(405.2083435058594,421.74603271484375)"/>
<path d="M0 0 C1.22878014 -0.00311998 2.45756028 -0.00623996 3.72357619 -0.00945449 C7.12233738 -0.01603947 10.52087673 -0.01368576 13.91962433 -0.00748205 C17.58979038 -0.00295082 21.25993726 -0.00994472 24.93009949 -0.01544189 C32.11578714 -0.0243309 39.30143299 -0.02241592 46.48712228 -0.01661661 C52.32879652 -0.01209749 58.17045906 -0.01148831 64.01213455 -0.01366425 C65.25988975 -0.01412394 65.25988975 -0.01412394 66.53285212 -0.01459293 C68.2228068 -0.01523239 69.91276149 -0.01588082 71.60271616 -0.01653811 C87.44684505 -0.02224015 103.29095079 -0.01568587 119.13507588 -0.00493738 C132.72211175 0.00399472 146.30911343 0.00244865 159.89614868 -0.0067749 C175.68098247 -0.01748545 191.46579597 -0.02168737 207.25063288 -0.01555037 C208.93493755 -0.01491329 210.61924223 -0.01428455 212.30354691 -0.01366425 C213.13221277 -0.01335569 213.96087864 -0.01304714 214.81465559 -0.01272924 C220.64646538 -0.01100441 226.47826226 -0.01391291 232.31007004 -0.01862335 C239.42134429 -0.02424104 246.53257442 -0.02269721 253.64384364 -0.01206186 C257.27025912 -0.00681659 260.89660109 -0.0047288 264.52301598 -0.01136017 C268.45850051 -0.01844767 272.39386548 -0.00996722 276.3293457 0 C277.46953073 -0.00446144 278.60971575 -0.00892289 279.78445184 -0.01351953 C286.10059967 0.0174961 291.67993986 0.63759132 297.79165649 2.25396729 C297.79165649 2.91396729 297.79165649 3.57396729 297.79165649 4.25396729 C298.45165649 4.25396729 299.11165649 4.25396729 299.79165649 4.25396729 C299.79165649 4.91396729 299.79165649 5.57396729 299.79165649 6.25396729 C300.43103149 6.52209229 301.07040649 6.79021729 301.72915649 7.06646729 C303.79165649 8.25396729 303.79165649 8.25396729 304.79165649 11.25396729 C305.45165649 11.25396729 306.11165649 11.25396729 306.79165649 11.25396729 C306.79165649 12.24396729 306.79165649 13.23396729 306.79165649 14.25396729 C307.45165649 14.25396729 308.11165649 14.25396729 308.79165649 14.25396729 C308.79165649 79.92396729 308.79165649 145.59396729 308.79165649 213.25396729 C308.13165649 213.25396729 307.47165649 213.25396729 306.79165649 213.25396729 C306.79165649 214.57396729 306.79165649 215.89396729 306.79165649 217.25396729 C306.13165649 217.25396729 305.47165649 217.25396729 304.79165649 217.25396729 C304.52353149 217.81084229 304.25540649 218.36771729 303.97915649 218.94146729 C303.58728149 219.70459229 303.19540649 220.46771729 302.79165649 221.25396729 C302.39978149 222.09959229 302.00790649 222.94521729 301.60415649 223.81646729 C299.18918699 227.06418489 296.60594793 228.22462019 292.79165649 229.25396729 C288.69016782 229.67859485 284.61429545 229.6502306 280.493927 229.62145996 C278.63638943 229.62636322 278.63638943 229.62636322 276.74132586 229.63136554 C273.31579155 229.63737773 269.890767 229.62997037 266.46528459 229.6168232 C262.7665288 229.60590479 259.06779759 229.61234144 255.36903381 229.61660767 C248.12784123 229.62223657 240.88675469 229.61193465 233.64558017 229.59631971 C225.21124148 229.57876866 216.77692327 229.57736019 208.34256917 229.57670411 C193.29253503 229.57501656 178.24254913 229.55920803 163.1925354 229.53521729 C148.59194539 229.51195987 133.99138597 229.49779245 119.39077759 229.49420166 C118.49151481 229.49397889 117.59225204 229.49375613 116.66573888 229.49352661 C114.85412366 229.493084 113.04250844 229.49264198 111.23089322 229.49220054 C110.3372138 229.49198097 109.44353437 229.49176141 108.52277374 229.49153519 C107.63133656 229.4913192 106.73989938 229.49110321 105.82144895 229.49088068 C91.90284983 229.48717805 77.98425564 229.47581849 64.06566194 229.46340479 C59.02301914 229.4589728 53.9803768 229.45553316 48.93773282 229.45278266 C40.93852099 229.44834646 32.93932736 229.44055995 24.94012702 229.42600825 C21.28562707 229.41941077 17.63114311 229.41433687 13.97663689 229.41354752 C10.01420339 229.41261343 6.0518087 229.40391599 2.08938599 229.39440918 C0.93559338 229.39527566 -0.21819922 229.39614214 -1.40695524 229.39703488 C-6.7813033 229.3776528 -11.91482117 229.20597152 -17.20834351 228.25396729 C-17.20834351 227.59396729 -17.20834351 226.93396729 -17.20834351 226.25396729 C-18.07459351 225.88271729 -18.07459351 225.88271729 -18.95834351 225.50396729 C-21.55743009 224.06003029 -23.28671188 222.51874741 -25.20834351 220.25396729 C-25.20834351 219.26396729 -25.20834351 218.27396729 -25.20834351 217.25396729 C-26.52834351 216.92396729 -27.84834351 216.59396729 -29.20834351 216.25396729 C-29.27838483 189.8724277 -29.33130778 163.49090201 -29.36378002 137.10928822 C-29.37925733 124.86020108 -29.4003634 112.61117167 -29.43466187 100.36212158 C-29.46453772 89.68744722 -29.48391222 79.01281466 -29.49060899 68.33809966 C-29.49452431 62.68447711 -29.5037439 57.03097417 -29.52553368 51.37738991 C-29.5458701 46.05788155 -29.55218303 40.73854226 -29.54766655 35.41899872 C-29.54849302 33.46505757 -29.55447553 31.51111087 -29.56595993 29.55720329 C-29.58085949 26.89189514 -29.57730638 24.22722751 -29.56910706 21.56190491 C-29.57784558 20.78660661 -29.5865841 20.01130831 -29.59558743 19.21251613 C-29.54972042 13.70611693 -28.29972009 10.54723418 -24.63021851 6.52349854 C-23.80264038 5.80226807 -23.80264038 5.80226807 -22.95834351 5.06646729 C-22.14623413 4.33363525 -22.14623413 4.33363525 -21.31771851 3.58599854 C-14.78899058 -0.53677225 -7.44587842 -0.02902151 0 0 Z M-10.20834351 13.25396729 C-9.53499331 16.30774384 -9.53499331 16.30774384 -7.39584351 17.44146729 C-4.97231321 18.48609164 -4.97231321 18.48609164 -1.20834351 18.25396729 C-1.20834351 18.91396729 -1.20834351 19.57396729 -1.20834351 20.25396729 C0.46228149 21.24396729 0.46228149 21.24396729 2.16665649 22.25396729 C2.79314087 22.62521729 3.41962524 22.99646729 4.06509399 23.37896729 C5.76638317 24.40465076 5.76638317 24.40465076 7.79165649 24.25396729 C8.04302368 24.87400635 8.29439087 25.49404541 8.55337524 26.13287354 C10.01283955 28.63283921 10.97210201 29.09939114 13.60415649 30.19146729 C16.5977231 31.55364777 17.97978666 32.44668599 20.35415649 34.87896729 C23.45151178 37.89690321 25.62063086 38.35433431 29.79165649 39.25396729 C29.79165649 39.91396729 29.79165649 40.57396729 29.79165649 41.25396729 C33.01279806 43.56988751 33.01279806 43.56988751 36.79165649 44.25396729 C36.79165649 44.91396729 36.79165649 45.57396729 36.79165649 46.25396729 C38.54117217 47.2131845 40.29128893 48.17130545 42.04165649 49.12896729 C43.01618774 49.66263916 43.99071899 50.19631104 44.99478149 50.74615479 C46.65662023 51.64206226 48.33236829 52.51396111 50.03384399 53.33209229 C52.39325594 54.56947277 53.91044228 56.37275307 55.79165649 58.25396729 C59.52973646 61.09223062 59.52973646 61.09223062 63.85415649 62.69146729 C65.79165649 63.25396729 65.79165649 63.25396729 68.04165649 65.56646729 C70.94300243 68.40187354 73.4407731 69.69889276 77.11978149 71.26177979 C78.79165649 72.25396729 78.79165649 72.25396729 79.79165649 75.25396729 C78.88415649 74.77959229 77.97665649 74.30521729 77.04165649 73.81646729 C74.52737701 72.60767907 72.4959744 71.77402842 69.79165649 71.25396729 C69.79165649 70.59396729 69.79165649 69.93396729 69.79165649 69.25396729 C67.94804113 67.9320731 67.94804113 67.9320731 65.54165649 66.62896729 C60.39750958 63.65077697 55.47469157 60.41725004 50.55337524 57.08599854 C48.80201612 55.92420585 47.02766028 54.79580213 45.22525024 53.71490479 C42.00248397 51.78021042 38.95397031 49.61866178 35.87759399 47.46099854 C33.76055315 46.003545 33.76055315 46.003545 30.79165649 46.25396729 C30.79165649 45.59396729 30.79165649 44.93396729 30.79165649 44.25396729 C28.23019079 41.95748079 27.31198077 41.25396729 23.79165649 41.25396729 C23.79165649 40.59396729 23.79165649 39.93396729 23.79165649 39.25396729 C23.27216431 39.01162354 22.75267212 38.76927979 22.21743774 38.51959229 C17.94797888 36.46772666 14.50188479 34.22214992 10.79165649 31.25396729 C9.80165649 31.25396729 8.81165649 31.25396729 7.79165649 31.25396729 C7.79165649 30.59396729 7.79165649 29.93396729 7.79165649 29.25396729 C6.90478149 28.84146729 6.01790649 28.42896729 5.10415649 28.00396729 C1.95897402 26.34236145 -0.46975666 24.5010129 -3.20834351 22.25396729 C-6.88718054 19.74228103 -6.88718054 19.74228103 -11.20834351 19.25396729 C-11.53834351 18.26396729 -11.86834351 17.27396729 -12.20834351 16.25396729 C-13.19834351 16.25396729 -14.18834351 16.25396729 -15.20834351 16.25396729 C-16.72826952 19.29381931 -16.34170049 22.44932755 -16.32859802 25.78353882 C-16.32945245 26.56928972 -16.33030687 27.35504062 -16.33118719 28.16460216 C-16.3328414 30.8117636 -16.32732157 33.45886242 -16.3218689 36.10601807 C-16.32158699 37.99791462 -16.32174483 39.88981128 -16.3223114 41.78170776 C-16.32259923 46.93019498 -16.31670491 52.07865908 -16.30973744 57.2271409 C-16.30350142 62.60301504 -16.30289991 67.97888965 -16.30171204 73.35476685 C-16.29859946 83.54033757 -16.29038705 93.72589761 -16.28036255 103.91146362 C-16.26919914 115.50500019 -16.26369038 127.09853727 -16.25866711 138.69207788 C-16.24820438 162.54604695 -16.23060635 186.40000652 -16.20834351 210.25396729 C-12.47608426 209.44440177 -10.31635598 208.03170319 -7.27084351 205.69146729 C0.98921688 199.53235934 9.79912476 194.27305477 18.79165649 189.25396729 C18.79165649 188.59396729 18.79165649 187.93396729 18.79165649 187.25396729 C19.656698 187.08284424 19.656698 187.08284424 20.53921509 186.90826416 C22.9991794 186.19368532 24.69843115 185.19695286 26.83071899 183.78521729 C27.94833618 183.05238525 27.94833618 183.05238525 29.08853149 182.30474854 C29.85681274 181.79299072 30.62509399 181.28123291 31.41665649 180.75396729 C32.94999991 179.7427757 34.48383107 178.73232323 36.01821899 177.72271729 C36.69449341 177.273479 37.37076782 176.82424072 38.0675354 176.36138916 C39.79165649 175.25396729 39.79165649 175.25396729 41.79165649 174.25396729 C41.79165649 173.59396729 41.79165649 172.93396729 41.79165649 172.25396729 C42.34337524 172.14955322 42.89509399 172.04513916 43.46353149 171.93756104 C46.28754159 171.10836344 48.51720565 169.82597079 51.04165649 168.31646729 C51.93368774 167.79181885 52.82571899 167.26717041 53.74478149 166.72662354 C54.42025024 166.24064697 55.09571899 165.75467041 55.79165649 165.25396729 C55.79165649 164.59396729 55.79165649 163.93396729 55.79165649 163.25396729 C57.44165649 162.92396729 59.09165649 162.59396729 60.79165649 162.25396729 C60.79165649 161.59396729 60.79165649 160.93396729 60.79165649 160.25396729 C61.53415649 159.96521729 62.27665649 159.67646729 63.04165649 159.37896729 C65.35905446 158.43094084 67.57082764 157.40550817 69.79165649 156.25396729 C69.79165649 155.59396729 69.79165649 154.93396729 69.79165649 154.25396729 C70.32790649 154.13021729 70.86415649 154.00646729 71.41665649 153.87896729 C74.25548509 153.13190713 77.01388852 152.20093364 79.79165649 151.25396729 C77.27725714 154.20565348 74.67241024 155.954983 71.29165649 157.75396729 C67.92776478 159.55506252 65.20085779 161.21627869 62.79165649 164.25396729 C62.79165649 164.91396729 62.79165649 165.57396729 62.79165649 166.25396729 C61.96407837 166.49631104 61.13650024 166.73865479 60.28384399 166.98834229 C56.22842176 168.45809263 52.65380242 170.37035008 48.91665649 172.50396729 C47.85547607 173.10458984 47.85547607 173.10458984 46.77285767 173.71734619 C42.39345434 176.23241102 38.27140203 178.89422031 34.32290649 182.05474854 C32.79165649 183.25396729 32.79165649 183.25396729 30.10415649 184.81646729 C27.64068216 186.2123822 27.64068216 186.2123822 25.54165649 188.62896729 C21.3103379 192.66795322 16.34684408 195.25411127 10.91665649 197.37896729 C8.59666558 198.33425766 7.34374164 199.29343868 5.79165649 201.25396729 C5.79165649 201.91396729 5.79165649 202.57396729 5.79165649 203.25396729 C4.47165649 203.58396729 3.15165649 203.91396729 1.79165649 204.25396729 C1.79165649 204.91396729 1.79165649 205.57396729 1.79165649 206.25396729 C0.14165649 206.58396729 -1.50834351 206.91396729 -3.20834351 207.25396729 C-3.20834351 207.91396729 -3.20834351 208.57396729 -3.20834351 209.25396729 C-4.11584351 209.33646729 -5.02334351 209.41896729 -5.95834351 209.50396729 C-9.60912189 210.34645461 -10.84218933 211.43278346 -13.20834351 214.25396729 C-12.87834351 214.91396729 -12.54834351 215.57396729 -12.20834351 216.25396729 C87.78165649 216.25396729 187.77165649 216.25396729 290.79165649 216.25396729 C291.12165649 214.60396729 291.45165649 212.95396729 291.79165649 211.25396729 C291.09298462 211.08381104 290.39431274 210.91365479 289.67446899 210.73834229 C288.76439087 210.49599854 287.85431274 210.25365479 286.91665649 210.00396729 C285.55927368 209.65592041 285.55927368 209.65592041 284.17446899 209.30084229 C281.30137209 208.03856364 280.92857383 207.09348765 279.79165649 204.25396729 C277.18845991 201.90269295 276.37035723 201.25396729 272.79165649 201.25396729 C272.79165649 200.59396729 272.79165649 199.93396729 272.79165649 199.25396729 C268.72592089 196.05836687 268.72592089 196.05836687 263.79165649 195.25396729 C263.79165649 194.59396729 263.79165649 193.93396729 263.79165649 193.25396729 C262.90478149 192.84146729 262.01790649 192.42896729 261.10415649 192.00396729 C257.79165649 190.25396729 257.79165649 190.25396729 255.47915649 188.37896729 C253.1976348 186.57497339 251.1482238 185.30276646 248.60415649 183.94146729 C234.93732182 176.54529793 234.93732182 176.54529793 232.79165649 172.25396729 C230.55857101 170.89711877 230.55857101 170.89711877 227.91665649 169.62896729 C227.03235962 169.18295166 226.14806274 168.73693604 225.23696899 168.27740479 C222.77223124 167.0609274 222.77223124 167.0609274 219.79165649 167.25396729 C219.79165649 166.59396729 219.79165649 165.93396729 219.79165649 165.25396729 C217.48489535 163.5333607 217.48489535 163.5333607 214.60415649 161.81646729 C213.64122681 161.21963135 212.67829712 160.62279541 211.68618774 160.00787354 C210.73099243 159.42908447 209.77579712 158.85029541 208.79165649 158.25396729 C207.90864868 157.68549072 207.02564087 157.11701416 206.11587524 156.53131104 C203.7954864 155.01314928 203.7954864 155.01314928 200.79165649 155.25396729 C200.79165649 154.59396729 200.79165649 153.93396729 200.79165649 153.25396729 C200.13165649 153.25396729 199.47165649 153.25396729 198.79165649 153.25396729 C198.79165649 152.26396729 198.79165649 151.27396729 198.79165649 150.25396729 C202.16665649 150.50396729 202.16665649 150.50396729 205.79165649 151.25396729 C206.08556274 151.86240479 206.37946899 152.47084229 206.68228149 153.09771729 C208.23175859 156.109377 210.20495387 156.93180343 213.16665649 158.50396729 C214.12314087 159.02474854 215.07962524 159.54552979 216.06509399 160.08209229 C218.90952517 161.51721544 218.90952517 161.51721544 222.79165649 161.25396729 C222.85353149 161.87271729 222.91540649 162.49146729 222.97915649 163.12896729 C223.24728149 163.83021729 223.51540649 164.53146729 223.79165649 165.25396729 C225.45150448 165.9374341 227.12002455 166.59985044 228.79165649 167.25396729 C230.60573766 168.6747861 232.30424748 170.19573297 234.02603149 171.72662354 C237.00721609 174.30548012 240.03176173 176.8398744 243.91665649 177.75396729 C245.79165649 178.25396729 245.79165649 178.25396729 247.54165649 180.06646729 C250.11722487 182.5704921 252.62246387 183.73136244 255.83853149 185.25006104 C258.44635853 186.59048413 260.55005523 188.37586893 262.79165649 190.25396729 C266.04322849 192.5541076 266.04322849 192.5541076 269.79165649 193.25396729 C269.79165649 193.91396729 269.79165649 194.57396729 269.79165649 195.25396729 C270.49290649 195.61748291 271.19415649 195.98099854 271.91665649 196.35552979 C277.29756571 199.20682679 282.28653785 202.13970349 287.03775024 205.95709229 C290.03209058 208.17117022 292.02473933 209.25396729 295.79165649 209.25396729 C295.81498255 184.4983166 295.83263422 159.74266755 295.84346867 134.98700809 C295.84863225 123.49338985 295.85567613 111.99977842 295.86709595 100.50616455 C295.87704089 90.49221541 295.88350947 80.4782712 295.88574499 70.46431726 C295.88705242 65.15851286 295.89014031 59.85272258 295.89738655 54.54692268 C295.90414378 49.55905957 295.90627407 44.57121648 295.90476418 39.58334923 C295.90504064 37.74706539 295.90704752 35.91078093 295.91086197 34.07450104 C295.91579458 31.57876113 295.9146564 29.08309804 295.91191101 26.58735657 C295.91482385 25.85098923 295.91773669 25.1146219 295.9207378 24.3559404 C296.20335252 21.02085867 296.20335252 21.02085867 294.79165649 18.25396729 C292.4609377 17.83526175 292.4609377 17.83526175 289.79165649 18.25396729 C288.08969244 19.54194008 286.42820471 20.8838339 284.79165649 22.25396729 C282.70668268 23.28260712 280.60612774 24.2268215 278.46353149 25.12896729 C276.59046978 26.14572799 276.59046978 26.14572799 276.05728149 28.37896729 C275.92579712 29.30709229 275.92579712 29.30709229 275.79165649 30.25396729 C273.81165649 30.74896729 273.81165649 30.74896729 271.79165649 31.25396729 C271.79165649 31.91396729 271.79165649 32.57396729 271.79165649 33.25396729 C270.92540649 33.31584229 270.05915649 33.37771729 269.16665649 33.44146729 C265.66843868 34.28363083 264.17685512 35.45958455 261.57681274 37.85162354 C258.63127473 40.16551445 255.25604277 41.58495893 251.86587524 43.14068604 C249.63875043 44.07928292 249.63875043 44.07928292 248.79165649 46.25396729 C247.13402073 46.94278214 245.4659316 47.60664581 243.79165649 48.25396729 C242.43215283 49.08772539 241.09865113 49.96509213 239.79165649 50.87896729 C234.8887605 54.24095311 229.81616822 57.28597823 224.70962524 60.32427979 C222.02265777 62.10120339 220.02391315 63.95765028 217.79165649 66.25396729 C216.12498983 66.92063395 214.45832316 67.58730062 212.79165649 68.25396729 C212.19353149 68.89334229 211.59540649 69.53271729 210.97915649 70.19146729 C207.8999509 73.09471827 204.79264249 73.92030529 200.79165649 75.25396729 C201.93198719 71.83297519 202.41839434 71.5882134 205.38931274 69.84381104 C206.10796509 69.41133057 206.82661743 68.9788501 207.56704712 68.53326416 C208.32179321 68.09047119 209.07653931 67.64767822 209.85415649 67.19146729 C211.34895114 66.31135455 212.84007058 65.42495929 214.32681274 64.53131104 C215.32273437 63.94724487 215.32273437 63.94724487 216.33877563 63.35137939 C216.81822632 62.9892334 217.297677 62.6270874 217.79165649 62.25396729 C217.79165649 61.59396729 217.79165649 60.93396729 217.79165649 60.25396729 C218.61923462 60.09734619 218.61923462 60.09734619 219.46353149 59.93756104 C222.28754159 59.10836344 224.51720565 57.82597079 227.04165649 56.31646729 C227.93368774 55.79181885 228.82571899 55.26717041 229.74478149 54.72662354 C230.42025024 54.24064697 231.09571899 53.75467041 231.79165649 53.25396729 C231.79165649 52.59396729 231.79165649 51.93396729 231.79165649 51.25396729 C234.26665649 50.75896729 234.26665649 50.75896729 236.79165649 50.25396729 C236.79165649 49.59396729 236.79165649 48.93396729 236.79165649 48.25396729 C239.10165649 47.59396729 241.41165649 46.93396729 243.79165649 46.25396729 C243.79165649 45.59396729 243.79165649 44.93396729 243.79165649 44.25396729 C244.45165649 44.04771729 245.11165649 43.84146729 245.79165649 43.62896729 C249.26217296 42.03831391 251.94876271 39.96163958 254.92446899 37.59381104 C256.79165649 36.25396729 256.79165649 36.25396729 259.79165649 35.25396729 C259.79165649 34.59396729 259.79165649 33.93396729 259.79165649 33.25396729 C260.90540649 32.82084229 260.90540649 32.82084229 262.04165649 32.37896729 C264.35905446 31.43094084 266.57082764 30.40550817 268.79165649 29.25396729 C268.79165649 28.59396729 268.79165649 27.93396729 268.79165649 27.25396729 C269.61665649 27.02709229 270.44165649 26.80021729 271.29165649 26.56646729 C275.45675135 25.00455671 279.29175079 23.02546622 282.79165649 20.25396729 C282.79165649 19.59396729 282.79165649 18.93396729 282.79165649 18.25396729 C285.10165649 17.59396729 287.41165649 16.93396729 289.79165649 16.25396729 C289.79165649 15.26396729 289.79165649 14.27396729 289.79165649 13.25396729 C190.79165649 13.25396729 91.79165649 13.25396729 -10.20834351 13.25396729 Z " fill="#080808" transform="translate(405.2083435058594,421.74603271484375)"/>
<path d="M0 0 C2.75404957 1.97400709 5.00307999 4.35011456 7.32421875 6.80859375 C8.32724785 7.8314724 8.32724785 7.8314724 9.35054016 8.87501526 C11.47758154 11.0487307 13.5832207 13.24176169 15.6875 15.4375 C17.80584318 17.62606184 19.92844441 19.81024667 22.05659485 21.98927307 C23.37754695 23.3440714 24.69226388 24.70498405 25.99992371 26.07261658 C26.59767105 26.68988113 27.1954184 27.30714569 27.8112793 27.94311523 C28.59235298 28.7579966 28.59235298 28.7579966 29.38920593 29.58934021 C31.14430671 31.12637722 32.87909314 32.0472085 35 33 C35 34.98 35 36.96 35 39 C2.33 39 -30.34 39 -64 39 C-64 33 -64 33 -62.31933594 30.60644531 C-61.16353027 29.47867676 -61.16353027 29.47867676 -59.984375 28.328125 C-59.14519531 27.49925781 -58.30601562 26.67039062 -57.44140625 25.81640625 C-56.55324219 24.96949219 -55.66507812 24.12257813 -54.75 23.25 C-53.87730469 22.38761719 -53.00460937 21.52523437 -52.10546875 20.63671875 C-42.966218 11.72071687 -42.966218 11.72071687 -36.5 11.6875 C-32.7061876 11.76213238 -30.79900438 12.30864964 -28 15 C-27.01 15.33 -26.02 15.66 -25 16 C-24.505 14.515 -24.505 14.515 -24 13 C-23.34 13 -22.68 13 -22 13 C-21.67 12.01 -21.34 11.02 -21 10 C-20.34 10 -19.68 10 -19 10 C-18.67 9.01 -18.34 8.02 -18 7 C-16.36739286 5.62517293 -14.69774938 4.29352333 -13 3 C-12.46375 2.443125 -11.9275 1.88625 -11.375 1.3125 C-7.94344704 -1.96307328 -4.22206421 -1.10643618 0 0 Z " fill="#070707" transform="translate(561,517)"/>
<path d="M0 0 C99.99 0 199.98 0 303 0 C302.67 1.32 302.34 2.64 302 4 C301.67 3.01 301.34 2.02 301 1 C202.33 1.33 103.66 1.66 2 2 C2 2.66 2 3.32 2 4 C2.5775 4.144375 3.155 4.28875 3.75 4.4375 C5.83333333 4.95833333 7.91666667 5.47916667 10 6 C10 6.66 10 7.32 10 8 C12.14661975 9.11306209 14.21354765 10.07474168 16.5 10.875 C19.36655184 12.16494833 20.78572921 13.78572921 23 16 C25.28227295 17.45235551 27.61523031 18.71589324 30 20 C30 20.66 30 21.32 30 22 C33.58752742 23.86551426 37.27812193 25.42535928 41 27 C41 27.66 41 28.32 41 29 C41.78375 29.309375 42.5675 29.61875 43.375 29.9375 C46 31 46 31 48 32 C48 32.66 48 33.32 48 34 C48.53109375 34.09410156 49.0621875 34.18820312 49.609375 34.28515625 C52.78408301 35.23445619 55.38726699 36.77448723 58.25 38.4375 C59.86648438 39.36369141 59.86648438 39.36369141 61.515625 40.30859375 C62.33546875 40.86675781 63.1553125 41.42492187 64 42 C64 42.66 64 43.32 64 44 C64.7425 44.268125 65.485 44.53625 66.25 44.8125 C68.89110345 45.95297649 70.71569429 47.28677072 73 49 C74.64797236 49.71162443 76.31165408 50.39031953 78 51 C78 51.66 78 52.32 78 53 C80.01782507 54.02478307 82.03483056 55.01537973 84.10546875 55.9296875 C84.79253906 56.24164063 85.47960937 56.55359375 86.1875 56.875 C86.88230469 57.18179688 87.57710938 57.48859375 88.29296875 57.8046875 C90 59 90 59 90.73828125 61.1328125 C90.82464844 61.74898438 90.91101563 62.36515625 91 63 C87.05879291 62.43697042 84.2491277 61.3208055 81 59 C81 58.34 81 57.68 81 57 C79.824375 56.7215625 79.824375 56.7215625 78.625 56.4375 C73.5105236 54.40934557 69.4285219 51.22205672 65 48 C62.27908878 46.12310245 59.52955031 44.31486775 56.6875 42.625 C53.40202476 40.63843358 50.25145549 38.47625445 47.0859375 36.3046875 C44.94217592 34.85018769 44.94217592 34.85018769 42 34 C42 33.34 42 32.68 42 32 C39.66785852 30.79371992 37.50357861 29.8345262 35 29 C35 28.34 35 27.68 35 27 C33.96875 26.773125 32.9375 26.54625 31.875 26.3125 C27.64371481 25.13048106 25.25851285 22.8882273 22 20 C21.01 19.67 20.02 19.34 19 19 C19 18.34 19 17.68 19 17 C18.113125 16.7525 17.22625 16.505 16.3125 16.25 C12.83035975 14.93598481 10.87355353 13.32621 8 11 C5.91736949 9.90721289 3.81252948 8.90344386 1.671875 7.9296875 C0 7 0 7 -1 5 C-1.99 4.34 -2.98 3.68 -4 3 C-3.01 3 -2.02 3 -1 3 C-0.67 2.01 -0.34 1.02 0 0 Z " fill="#565656" transform="translate(394,434)"/>
<path d="M0 0 C1.52101817 3.04203635 1.11290372 6.19444214 1.08229065 9.52957153 C1.07744696 10.70819789 1.07744696 10.70819789 1.07250541 11.91063488 C1.06038944 14.55782184 1.04102517 17.20490713 1.02172852 19.85205078 C1.01159005 21.74394507 1.00189591 23.63584179 0.99261475 25.52774048 C0.96609041 30.67625147 0.9333198 35.82470631 0.89946485 40.97317362 C0.86516464 46.34902899 0.83655744 51.7249145 0.80735779 57.10079956 C0.75116282 67.28639146 0.6898151 77.47194562 0.62663645 87.65749633 C0.55497388 99.25101219 0.48902467 110.84455831 0.42356598 122.43811059 C0.28875466 146.292113 0.14673395 170.14606816 0 194 C4.09336969 191.56760049 8.05468725 188.97608419 12 186.3125 C17.05720824 182.92347462 22.14196822 179.5889355 27.3125 176.375 C28.36050781 175.72273437 29.40851563 175.07046875 30.48828125 174.3984375 C33 173 33 173 35 173 C35 172.34 35 171.68 35 171 C35.76570313 170.5978125 35.76570313 170.5978125 36.546875 170.1875 C42.45666147 167.00208318 47.97369037 163.38982568 53.49609375 159.57421875 C56 158 56 158 58 158 C58 157.34 58 156.68 58 156 C67.41002278 150.62870159 67.41002278 150.62870159 72 149 C72 148.34 72 147.68 72 147 C73.65 146.67 75.3 146.34 77 146 C77 145.34 77 144.68 77 144 C83.75 140 83.75 140 86 140 C86 139.34 86 138.68 86 138 C89.41831915 135.4606772 91.75776898 134.6363802 96 135 C94.73809862 138.78570414 93.45144185 139.21831571 90.0625 141.1875 C89.16660156 141.71730469 88.27070313 142.24710938 87.34765625 142.79296875 C85 144 85 144 83 144 C82.34 145.32 81.68 146.64 81 148 C80.34 148 79.68 148 79 148 C79 148.66 79 149.32 79 150 C78.17242187 150.40605469 77.34484375 150.81210937 76.4921875 151.23046875 C67.50664253 155.7835469 58.41634693 160.48924533 50.53125 166.80078125 C49 168 49 168 46.3125 169.5625 C43.84902566 170.95841491 43.84902566 170.95841491 41.75 173.375 C36.94615352 177.96048982 31.57579384 180.93490663 25 182 C24.67 182.99 24.34 183.98 24 185 C23.34 185 22.68 185 22 185 C22 185.66 22 186.32 22 187 C21.01 187.33 20.02 187.66 19 188 C18.67 188.66 18.34 189.32 18 190 C15.4375 190.625 15.4375 190.625 13 191 C13 191.66 13 192.32 13 193 C8.545 194.98 8.545 194.98 4 197 C4 197.66 4 198.32 4 199 C3.34 199 2.68 199 2 199 C2 198.01 2 197.02 2 196 C1.01 196 0.02 196 -1 196 C-1.02332591 170.5924302 -1.04097766 145.184862 -1.05181217 119.77728367 C-1.05697579 107.98099472 -1.06401972 96.18471242 -1.07543945 84.38842773 C-1.0853843 74.11079003 -1.09185295 63.83315713 -1.09408849 53.55551475 C-1.09539594 48.10998212 -1.09848393 42.66446325 -1.10573006 37.21893501 C-1.11248713 32.09974791 -1.1146176 26.9805803 -1.11310768 21.86138916 C-1.11338415 19.97672864 -1.11539112 18.0920675 -1.11920547 16.20741081 C-1.12413785 13.64598563 -1.12299999 11.08463532 -1.12025452 8.52320862 C-1.12316736 7.76738654 -1.1260802 7.01156447 -1.12908131 6.23283869 C-1.11412121 1.11412121 -1.11412121 1.11412121 0 0 Z " fill="#787879" transform="translate(389,438)"/>
<path d="M0 0 C1.051875 -0.02126953 1.051875 -0.02126953 2.125 -0.04296875 C4 0.1875 4 0.1875 6 2.1875 C6.19309069 4.72103698 6.26053242 7.14478646 6.24050903 9.67910767 C6.24221788 10.46077502 6.24392673 11.24244237 6.24568737 12.04779661 C6.24899581 14.68120738 6.23795643 17.31436639 6.22705078 19.94775391 C6.22648696 21.82979832 6.22680266 23.71184317 6.22793579 25.59388733 C6.22851144 30.71554462 6.21672292 35.83710892 6.20278788 40.95874453 C6.19031575 46.30658787 6.1891128 51.65443317 6.18673706 57.00228882 C6.18051192 67.1347511 6.16408715 77.26717041 6.14403808 87.39961374 C6.12171119 98.9326874 6.11069374 110.46576308 6.10064721 121.99885297 C6.0797218 145.72842584 6.04452579 169.45796051 6 193.1875 C5.67 193.1875 5.34 193.1875 5 193.1875 C4.67 130.4875 4.34 67.7875 4 3.1875 C-1.61161207 3.1875 -2.03065269 3.7143211 -6 7.1875 C-10.5 10.1875 -10.5 10.1875 -14 10.1875 C-14.33 11.5075 -14.66 12.8275 -15 14.1875 C-16.32 14.5175 -17.64 14.8475 -19 15.1875 C-19 15.8475 -19 16.5075 -19 17.1875 C-20.051875 17.6 -21.10375 18.0125 -22.1875 18.4375 C-25.61397834 19.89717977 -28.09435364 21.84880903 -31 24.1875 C-38.0443686 28.1875 -38.0443686 28.1875 -41 28.1875 C-41.495 29.6725 -41.495 29.6725 -42 31.1875 C-43.64148333 31.91396728 -45.31287603 32.57444623 -47 33.1875 C-48.35950366 34.0212581 -49.69300536 34.89862484 -51 35.8125 C-55.902896 39.17448583 -60.97548827 42.21951094 -66.08203125 45.2578125 C-68.76795853 47.03404821 -70.74998692 48.91286971 -73 51.1875 C-75.75 51.9375 -75.75 51.9375 -78 52.1875 C-78.33 53.1775 -78.66 54.1675 -79 55.1875 C-80.7421875 56.35546875 -80.7421875 56.35546875 -82.875 57.375 C-83.57367187 57.71917969 -84.27234375 58.06335938 -84.9921875 58.41796875 C-87 59.1875 -87 59.1875 -90 59.1875 C-89.39888848 55.55883314 -89.08248257 55.2504829 -85.91015625 52.828125 C-84.63534167 52.01892948 -83.35239602 51.22243177 -82.0625 50.4375 C-81.41603516 50.02628906 -80.76957031 49.61507812 -80.10351562 49.19140625 C-75.2982636 46.1875 -75.2982636 46.1875 -73 46.1875 C-73 45.5275 -73 44.8675 -73 44.1875 C-63.58997722 38.81620159 -63.58997722 38.81620159 -59 37.1875 C-59 36.5275 -59 35.8675 -59 35.1875 C-56.525 34.6925 -56.525 34.6925 -54 34.1875 C-54 33.5275 -54 32.8675 -54 32.1875 C-51.69 31.5275 -49.38 30.8675 -47 30.1875 C-47 29.5275 -47 28.8675 -47 28.1875 C-45.61660596 27.20900177 -44.22405888 26.24096707 -42.7890625 25.33984375 C-40.29966057 23.73640801 -37.96631325 21.9365023 -35.61328125 20.140625 C-34 19.1875 -34 19.1875 -31 19.1875 C-31 18.5275 -31 17.8675 -31 17.1875 C-24.25 13.1875 -24.25 13.1875 -22 13.1875 C-22 12.5275 -22 11.8675 -22 11.1875 C-21.154375 10.775 -20.30875 10.3625 -19.4375 9.9375 C-12.14662142 6.37220001 -12.14662142 6.37220001 -6 1.1875 C-3.77109005 0.07304502 -2.46944894 0.02269714 0 0 Z " fill="#424243" transform="translate(696,437.8125)"/>
<path d="M0 0 C5.378705 0.41374654 7.36286001 1.1489106 11 5 C15.13240422 7.63459972 19.16751543 10.00055433 24 11 C24.33 12.32 24.66 13.64 25 15 C26.0209375 15.061875 26.0209375 15.061875 27.0625 15.125 C30.65686665 16.19566241 32.49498254 17.95994082 35.23828125 20.44140625 C39.09542494 23.85382384 43.1545001 26.28982356 48 28 C48 28.66 48 29.32 48 30 C48.70125 30.268125 49.4025 30.53625 50.125 30.8125 C55.38653178 32.98574139 59.57399675 35.43760714 64 39 C66.29809369 40.40866412 68.63597424 41.7021035 71 43 C71 43.66 71 44.32 71 45 C71.57492187 45.10957031 72.14984375 45.21914063 72.7421875 45.33203125 C75.28650814 46.08476279 76.95737768 47.16376549 79.125 48.6875 C83.26832927 51.53432392 87.50794402 54.1475479 91.8359375 56.703125 C93.58770694 57.75292185 95.30074844 58.86716563 97 60 C91.58445995 61.48927351 87.8216896 60.62547488 83 58 C80.25 55.4375 80.25 55.4375 78 53 C75.83379456 51.70480005 75.83379456 51.70480005 74 51 C74 50.34 74 49.68 74 49 C73.2575 48.71125 72.515 48.4225 71.75 48.125 C69.43260203 47.17697356 67.22082885 46.15154089 65 45 C65 44.34 65 43.68 65 43 C64.113125 42.7525 63.22625 42.505 62.3125 42.25 C58.81252939 40.92925637 56.88558121 39.34872889 54 37 C52.63689702 36.22858878 51.26030469 35.48079129 49.875 34.75 C44.24964483 31.70490892 38.88509255 28.13634939 34 24 C34 23.34 34 22.68 34 22 C33.34 21.9175 32.68 21.835 32 21.75 C28.00960837 20.75240209 24.61450357 18.92833317 21 17 C21 16.34 21 15.68 21 15 C20.34 14.79375 19.68 14.5875 19 14.375 C16.26662803 13.12220451 14.40303843 11.84188245 12.0625 10 C8.84036992 7.49321948 6.0098311 6.00245778 2 5 C2 4.34 2 3.68 2 3 C1.34 3 0.68 3 0 3 C0 2.01 0 1.02 0 0 Z " fill="#363636" transform="translate(604,572)"/>
<path d="M0 0 C4.85963179 0.60745397 8.7405518 2.72758967 13 5 C13 5.66 13 6.32 13 7 C14.175625 7.4640625 14.175625 7.4640625 15.375 7.9375 C18 9 18 9 20 10 C20 10.66 20 11.32 20 12 C20.79664063 12.14115234 20.79664063 12.14115234 21.609375 12.28515625 C24.78408301 13.23445619 27.38726699 14.77448723 30.25 16.4375 C31.32765625 17.05496094 32.4053125 17.67242187 33.515625 18.30859375 C34.33546875 18.86675781 35.1553125 19.42492187 36 20 C36 20.66 36 21.32 36 22 C36.7425 22.268125 37.485 22.53625 38.25 22.8125 C40.89110345 23.95297649 42.71569429 25.28677072 45 27 C46.64797236 27.71162443 48.31165408 28.39031953 50 29 C50 29.66 50 30.32 50 31 C52.01782507 32.02478307 54.03483056 33.01537973 56.10546875 33.9296875 C56.79253906 34.24164063 57.47960937 34.55359375 58.1875 34.875 C58.88230469 35.18179688 59.57710938 35.48859375 60.29296875 35.8046875 C62 37 62 37 62.73828125 39.1328125 C62.82464844 39.74898438 62.91101563 40.36515625 63 41 C59.05879291 40.43697042 56.2491277 39.3208055 53 37 C53 36.34 53 35.68 53 35 C52.21625 34.814375 51.4325 34.62875 50.625 34.4375 C45.5105236 32.40934557 41.4285219 29.22205672 37 26 C34.27908878 24.12310245 31.52955031 22.31486775 28.6875 20.625 C25.40202476 18.63843358 22.25145549 16.47625445 19.0859375 14.3046875 C16.94217592 12.85018769 16.94217592 12.85018769 14 12 C14 11.34 14 10.68 14 10 C11.66785852 8.79371992 9.50357861 7.8345262 7 7 C7 6.34 7 5.68 7 5 C6.21625 4.731875 5.4325 4.46375 4.625 4.1875 C2 3 2 3 0 0 Z " fill="#2C2C2C" transform="translate(422,456)"/>
<path d="M0 0 C0.66 0.33 1.32 0.66 2 1 C1.34 3.31 0.68 5.62 0 8 C-0.66 8 -1.32 8 -2 8 C-1.67 74 -1.34 140 -1 208 C-1.66 208 -2.32 208 -3 208 C-3.07004133 181.61846041 -3.12296428 155.23693473 -3.15543652 128.85532093 C-3.17091383 116.60623379 -3.1920199 104.35720438 -3.22631836 92.1081543 C-3.25619421 81.43347994 -3.27556871 70.75884738 -3.28226548 60.08413237 C-3.2861808 54.43050983 -3.29540039 48.77700688 -3.31719017 43.12342262 C-3.33752659 37.80391426 -3.34383953 32.48457498 -3.33932304 27.16503143 C-3.34014952 25.21109028 -3.34613202 23.25714358 -3.35761642 21.30323601 C-3.37251598 18.63792786 -3.36896288 15.97326023 -3.36076355 13.30793762 C-3.36950207 12.53263933 -3.3782406 11.75734103 -3.38724393 10.95854884 C-3.34974252 6.45645258 -2.70579981 3.62754425 0 0 Z " fill="#454546" transform="translate(379,430)"/>
<path d="M0 0 C2.47471513 2.47471513 2.23807269 3.88051293 2.25816262 7.25722754 C2.25233693 7.99457298 2.24651125 8.73191842 2.24050903 9.49160767 C2.24221788 10.27327502 2.24392673 11.05494237 2.24568737 11.86029661 C2.24899581 14.49370738 2.23795643 17.12686639 2.22705078 19.76025391 C2.22648696 21.64229832 2.22680266 23.52434317 2.22793579 25.40638733 C2.22851144 30.52804462 2.21672292 35.64960892 2.20278788 40.77124453 C2.19031575 46.11908787 2.1891128 51.46693317 2.18673706 56.81478882 C2.18051192 66.9472511 2.16408715 77.07967041 2.14403808 87.21211374 C2.12171119 98.7451874 2.11069374 110.27826308 2.10064721 121.81135297 C2.0797218 145.54092584 2.04452579 169.27046051 2 193 C1.67 193 1.34 193 1 193 C0.67 130.3 0.34 67.6 0 3 C-3.96 3 -7.92 3 -12 3 C-7.08540021 -0.68594984 -5.86772295 -0.47320346 0 0 Z " fill="#717172" transform="translate(700,438)"/>
<path d="M0 0 C2 2 2 2 2.1953125 4.3828125 C2.17210937 5.28773438 2.14890625 6.19265625 2.125 7.125 C2.10695313 8.03507813 2.08890625 8.94515625 2.0703125 9.8828125 C2.04710937 10.58148437 2.02390625 11.28015625 2 12 C1.01 12.33 0.02 12.66 -1 13 C-1 13.66 -1 14.32 -1 15 C-8.26605505 15.60550459 -8.26605505 15.60550459 -11.5 12.9375 C-13.35306455 9.30858192 -13.52177189 7.02509747 -13 3 C-9.6354001 -1.80657128 -5.25749668 -1.05149934 0 0 Z " fill="#151515" transform="translate(513,505)"/>
<path d="M0 0 C1 2 1 2 1 3 C1.99 3 2.98 3 4 3 C4 2.34 4 1.68 4 1 C4.99 0.67 5.98 0.34 7 0 C5.2488452 4.28359404 3.09595634 5.30105853 -0.95703125 7.18359375 C-3.28016679 8.11195958 -5.51698523 8.68962315 -8 9 C-8.33 9.99 -8.66 10.98 -9 12 C-9.66 12 -10.32 12 -11 12 C-11 12.66 -11 13.32 -11 14 C-11.99 14.33 -12.98 14.66 -14 15 C-14.33 15.66 -14.66 16.32 -15 17 C-17.5625 17.625 -17.5625 17.625 -20 18 C-20 18.66 -20 19.32 -20 20 C-22.97 21.32 -25.94 22.64 -29 24 C-29 24.66 -29 25.32 -29 26 C-29.66 26 -30.32 26 -31 26 C-31 25.01 -31 24.02 -31 23 C-31.99 23 -32.98 23 -34 23 C-34 22.34 -34 21.68 -34 21 C-33.278125 20.74476563 -32.55625 20.48953125 -31.8125 20.2265625 C-28.82045972 18.92170049 -26.5892218 17.35638619 -24 15.375 C-17.8908886 10.83041713 -11.52956866 6.90561733 -5 3 C-4.04867188 2.42894531 -3.09734375 1.85789062 -2.1171875 1.26953125 C-1.41851562 0.85058594 -0.71984375 0.43164062 0 0 Z " fill="#7A7A7B" transform="translate(422,611)"/>
<path d="M0 0 C0 0.66 0 1.32 0 2 C-1.86328125 3.5078125 -1.86328125 3.5078125 -4.3125 5.125 C-5.51326172 5.93324219 -5.51326172 5.93324219 -6.73828125 6.7578125 C-9 8 -9 8 -12 8 C-12.33 9.32 -12.66 10.64 -13 12 C-14.32 12.33 -15.64 12.66 -17 13 C-17 13.66 -17 14.32 -17 15 C-18.051875 15.4125 -19.10375 15.825 -20.1875 16.25 C-22.7882415 17.34231143 -24.25959497 18.22631356 -26.4375 20.125 C-30.01895828 22.74557923 -32.5893714 22.78308384 -37 23 C-37.66 22.67 -38.32 22.34 -39 22 C-37.90241493 21.15801693 -36.79664683 20.32669329 -35.6875 19.5 C-35.07261719 19.0359375 -34.45773437 18.571875 -33.82421875 18.09375 C-32 17 -32 17 -29 17 C-29 16.34 -29 15.68 -29 15 C-22.25 11 -22.25 11 -20 11 C-20 10.34 -20 9.68 -20 9 C-19.236875 8.62875 -18.47375 8.2575 -17.6875 7.875 C-13.53135406 5.8168129 -9.51913357 3.49842863 -5.48828125 1.20703125 C-3 0 -3 0 0 0 Z " fill="#6D6D6E" transform="translate(694,440)"/>
<path d="M0 0 C0.33 0.66 0.66 1.32 1 2 C3.34386809 2.91031272 3.34386809 2.91031272 6.0625 3.625 C6.98160156 3.88539063 7.90070313 4.14578125 8.84765625 4.4140625 C9.55792969 4.60742188 10.26820313 4.80078125 11 5 C11 5.66 11 6.32 11 7 C13.14661975 8.11306209 15.21354765 9.07474168 17.5 9.875 C20.36655184 11.16494833 21.78572921 12.78572921 24 15 C26.28227295 16.45235551 28.61523031 17.71589324 31 19 C31 20.32 31 21.64 31 23 C27.06764531 23 25.97035951 21.45054659 23 19 C22.01 18.67 21.02 18.34 20 18 C20 17.34 20 16.68 20 16 C19.113125 15.7525 18.22625 15.505 17.3125 15.25 C13.83035975 13.93598481 11.87355353 12.32621 9 10 C6.91736949 8.90721289 4.81252948 7.90344386 2.671875 6.9296875 C1 6 1 6 0 4 C-0.99 3.34 -1.98 2.68 -3 2 C-2.01 2 -1.02 2 0 2 C0 1.34 0 0.68 0 0 Z " fill="#2E2E2F" transform="translate(393,435)"/>
<path d="M0 0 C0.99 0 1.98 0 3 0 C3 0.66 3 1.32 3 2 C0.83984375 3.55078125 0.83984375 3.55078125 -2.0625 5.3125 C-5.40463753 7.37613049 -8.70130021 9.43481767 -11.875 11.75 C-14.52817407 13.66028533 -17.17427597 15.36405451 -20 17 C-20.886875 17.556875 -21.77375 18.11375 -22.6875 18.6875 C-25 20 -25 20 -27 20 C-27 20.66 -27 21.32 -27 22 C-28.98 22.66 -30.96 23.32 -33 24 C-32.505 22.515 -32.505 22.515 -32 21 C-31.34 21 -30.68 21 -30 21 C-29.91363281 20.38640625 -29.82726562 19.7728125 -29.73828125 19.140625 C-29 17 -29 17 -27.35546875 15.796875 C-26.64003906 15.45140625 -25.92460937 15.1059375 -25.1875 14.75 C-21.20789353 12.70624676 -17.56357216 10.40828352 -13.875 7.875 C-9.66907577 5.02270656 -5.74122838 2.79113072 -1 1 C-0.67 0.67 -0.34 0.34 0 0 Z " fill="#4B4B4B" transform="translate(453,592)"/>
<path d="M0 0 C5.378705 0.41374654 7.36286001 1.1489106 11 5 C15.13240422 7.63459972 19.16751543 10.00055433 24 11 C24.33 12.32 24.66 13.64 25 15 C25.804375 15.12375 26.60875 15.2475 27.4375 15.375 C28.283125 15.58125 29.12875 15.7875 30 16 C30.33 16.66 30.66 17.32 31 18 C24.375 18.125 24.375 18.125 21 17 C21 16.34 21 15.68 21 15 C20.34 14.79375 19.68 14.5875 19 14.375 C16.26662803 13.12220451 14.40303843 11.84188245 12.0625 10 C8.84036992 7.49321948 6.0098311 6.00245778 2 5 C2 4.34 2 3.68 2 3 C1.34 3 0.68 3 0 3 C0 2.01 0 1.02 0 0 Z " fill="#29292A" transform="translate(604,572)"/>
<path d="M0 0 C4.96865684 0.47564462 7.66250727 1.86965365 11.5625 4.9375 C14.96101671 7.59364568 17.91036985 9.5874876 22 11 C22 11.66 22 12.32 22 13 C22.70125 13.268125 23.4025 13.53625 24.125 13.8125 C27.1649824 15.0681449 30.0727774 16.50235123 33 18 C30.00818583 19.49590709 28.3583794 19.42743011 25 19 C21.78787494 17.28409586 18.91935588 15.16866437 16 13 C14.83404297 12.17628906 14.83404297 12.17628906 13.64453125 11.3359375 C9.50427381 8.36081445 9.50427381 8.36081445 8 7 C8 6.34 8 5.68 8 5 C6.8553125 4.814375 6.8553125 4.814375 5.6875 4.625 C3 4 3 4 0 2 C0 1.34 0 0.68 0 0 Z " fill="#454546" transform="translate(630,589)"/>
<path d="M0 0 C1.0828125 0.680625 1.0828125 0.680625 2.1875 1.375 C4.74894081 2.85494358 7.23277989 3.97217539 10 5 C10 5.66 10 6.32 10 7 C12.01782507 8.02478307 14.03483056 9.01537973 16.10546875 9.9296875 C16.79253906 10.24164063 17.47960937 10.55359375 18.1875 10.875 C19.22970703 11.33519531 19.22970703 11.33519531 20.29296875 11.8046875 C22 13 22 13 22.73828125 15.1328125 C22.82464844 15.74898438 22.91101563 16.36515625 23 17 C19.05879291 16.43697042 16.2491277 15.3208055 13 13 C13 12.34 13 11.68 13 11 C12.21625 10.814375 11.4325 10.62875 10.625 10.4375 C5.52092787 8.4134714 1.39631503 5.24945024 -3 2 C-2.01 1.34 -1.02 0.68 0 0 Z " fill="#363637" transform="translate(462,480)"/>
<path d="M0 0 C0 0.66 0 1.32 0 2 C-0.99 2.33 -1.98 2.66 -3 3 C-3.33 3.66 -3.66 4.32 -4 5 C-6.5625 5.625 -6.5625 5.625 -9 6 C-9 6.66 -9 7.32 -9 8 C-11.97 9.32 -14.94 10.64 -18 12 C-18 12.66 -18 13.32 -18 14 C-18.66 14 -19.32 14 -20 14 C-20 13.01 -20 12.02 -20 11 C-20.99 11 -21.98 11 -23 11 C-23 10.34 -23 9.68 -23 9 C-22.34 8.79375 -21.68 8.5875 -21 8.375 C-16.88393737 6.48847129 -13.5412297 3.79432021 -10 1 C-9.34 1.33 -8.68 1.66 -8 2 C-8.66 2.66 -9.32 3.32 -10 4 C-6.72319975 2.76012964 -3.36692006 0 0 0 Z " fill="#363636" transform="translate(411,623)"/>
<path d="M0 0 C0 0.66 0 1.32 0 2 C-1.2065625 2.4021875 -1.2065625 2.4021875 -2.4375 2.8125 C-3.283125 3.204375 -4.12875 3.59625 -5 4 C-5.33 4.99 -5.66 5.98 -6 7 C-7.65249487 7.70105843 -9.32367583 8.35800351 -11 9 C-13.11103843 10.27794664 -15.17247307 11.61505866 -17.23046875 12.9765625 C-19 14 -19 14 -21 14 C-21 13.34 -21 12.68 -21 12 C-20.34 12 -19.68 12 -19 12 C-18.67 10.68 -18.34 9.36 -18 8 C-15.69 7.34 -13.38 6.68 -11 6 C-11 5.34 -11 4.68 -11 4 C-9.73308493 3.32591692 -8.46129251 2.66099503 -7.1875 2 C-6.47980469 1.62875 -5.77210938 1.2575 -5.04296875 0.875 C-3 0 -3 0 0 0 Z " fill="#434344" transform="translate(660,462)"/>
<path d="M0 0 C3.88113524 0.55444789 5.28863217 2.28863217 8 5 C10.28167048 6.45376413 12.61497119 7.71575372 15 9 C15 10.32 15 11.64 15 13 C11.06764531 13 9.97035951 11.45054659 7 9 C6.01 8.67 5.02 8.34 4 8 C4 7.34 4 6.68 4 6 C2.02 5.34 0.04 4.68 -2 4 C-1.34 3.67 -0.68 3.34 0 3 C0.66 3.33 1.32 3.66 2 4 C1.34 2.68 0.68 1.36 0 0 Z " fill="#575758" transform="translate(409,445)"/>
<path d="M0 0 C3.98119095 0.57791481 6.7244425 1.81085165 10.125 3.9375 C11.39730469 4.72447266 11.39730469 4.72447266 12.6953125 5.52734375 C14.47621096 6.66530768 16.2415249 7.82768327 18 9 C13.37824126 10.27098365 10.18054281 9.94076747 5.8359375 8.16796875 C2.6238845 6.12455631 1.54609463 3.41429232 0 0 Z " fill="#232323" transform="translate(683,623)"/>
<path d="M0 0 C0 0.66 0 1.32 0 2 C-0.99 2 -1.98 2 -3 2 C-3 2.66 -3 3.32 -3 4 C-1.02 3.34 0.96 2.68 3 2 C3 2.66 3 3.32 3 4 C-1.56741131 6.39245354 -6.04383184 8.28335317 -11.0625 9.5 C-13.47139171 10.12164947 -15.7060625 11.04419271 -18 12 C-18 11.34 -18 10.68 -18 10 C-8.58997722 4.62870159 -8.58997722 4.62870159 -4 3 C-4 2.34 -4 1.68 -4 1 C-2 0 -2 0 0 0 Z " fill="#737374" transform="translate(465,584)"/>
<path d="M0 0 C0 0.66 0 1.32 0 2 C-1.8984375 3.5078125 -1.8984375 3.5078125 -4.375 5.125 C-5.59316406 5.93324219 -5.59316406 5.93324219 -6.8359375 6.7578125 C-9 8 -9 8 -11 8 C-11 8.66 -11 9.32 -11 10 C-12.98 10.66 -14.96 11.32 -17 12 C-16.67 11.01 -16.34 10.02 -16 9 C-15.34 9 -14.68 9 -14 9 C-13.979375 8.4225 -13.95875 7.845 -13.9375 7.25 C-12.4625771 3.71018504 -9.32814473 2.52539967 -6 1 C-3.79968258 0.28638354 -2.29443419 0 0 0 Z " fill="#323232" transform="translate(437,604)"/>
<path d="M0 0 C4.9987005 0.48207052 7.87567176 1.94071339 11.875 4.9375 C12.84179688 5.64777344 13.80859375 6.35804688 14.8046875 7.08984375 C15.52914062 7.72019531 16.25359375 8.35054687 17 9 C17 9.66 17 10.32 17 11 C13.625 10.25 13.625 10.25 10 9 C8.875 6.9375 8.875 6.9375 8 5 C5.55936559 4.32852082 5.55936559 4.32852082 3 4 C2.01 3.34 1.02 2.68 0 2 C0 1.34 0 0.68 0 0 Z " fill="#252525" transform="translate(630,589)"/>
<path d="M0 0 C4.85963179 0.60745397 8.7405518 2.72758967 13 5 C13 5.66 13 6.32 13 7 C13.66 7.33 14.32 7.66 15 8 C14.34 8 13.68 8 13 8 C12.67 8.66 12.34 9.32 12 10 C9.5 8.625 9.5 8.625 7 7 C7 6.34 7 5.68 7 5 C6.21625 4.731875 5.4325 4.46375 4.625 4.1875 C2 3 2 3 0 0 Z " fill="#3A3A3B" transform="translate(422,456)"/>
<path d="M0 0 C0.66 0.33 1.32 0.66 2 1 C1.67 1.66 1.34 2.32 1 3 C2.32 2.67 3.64 2.34 5 2 C2.23077149 5.07692057 -0.02850024 6.77800007 -4 8 C-4.99 8 -5.98 8 -7 8 C-6.875 6.25 -6.875 6.25 -6 4 C-2.9375 1.75 -2.9375 1.75 0 0 Z " fill="#747475" transform="translate(613,489)"/>
<path d="M0 0 C-1 3 -1 3 -2.63671875 4.1328125 C-6.76689322 6.13103025 -10.37081861 7.53708186 -15 8 C-13.625 6.5 -13.625 6.5 -12 5 C-11.34 5 -10.68 5 -10 5 C-10 4.34 -10 3.68 -10 3 C-6.58168085 0.4606772 -4.24223102 -0.3636198 0 0 Z " fill="#454546" transform="translate(485,573)"/>
<path d="M0 0 C0 0.66 0 1.32 0 2 C-1.79296875 3.47265625 -1.79296875 3.47265625 -4.1875 5.0625 C-4.96480469 5.58972656 -5.74210938 6.11695313 -6.54296875 6.66015625 C-9.06985506 8.03809267 -11.16642955 8.59232823 -14 9 C-13.34 8.01 -12.68 7.02 -12 6 C-11.34 6 -10.68 6 -10 6 C-10 5.34 -10 4.68 -10 4 C-3.375 0 -3.375 0 0 0 Z " fill="#1A1A1A" transform="translate(694,440)"/>
<path d="M0 0 C0 0.66 0 1.32 0 2 C-0.99 2.33 -1.98 2.66 -3 3 C-3.33 3.66 -3.66 4.32 -4 5 C-6.5625 5.625 -6.5625 5.625 -9 6 C-9 6.66 -9 7.32 -9 8 C-10.65 8.33 -12.3 8.66 -14 9 C-13.34 7.68 -12.68 6.36 -12 5 C-12.66 4.67 -13.32 4.34 -14 4 C-12.68 3.01 -11.36 2.02 -10 1 C-9.34 1.33 -8.68 1.66 -8 2 C-8.66 2.66 -9.32 3.32 -10 4 C-6.72319975 2.76012964 -3.36692006 0 0 0 Z " fill="#868687" transform="translate(411,623)"/>
<path d="M0 0 C0 0.66 0 1.32 0 2 C-0.99 2 -1.98 2 -3 2 C-3 2.66 -3 3.32 -3 4 C-1.68 3.67 -0.36 3.34 1 3 C0 5 0 5 -2.06640625 5.8515625 C-3.30197266 6.23441406 -3.30197266 6.23441406 -4.5625 6.625 C-5.38878906 6.88539063 -6.21507812 7.14578125 -7.06640625 7.4140625 C-7.70449219 7.60742188 -8.34257813 7.80078125 -9 8 C-8.01437243 4.68470727 -7.34552581 3.25050621 -4.5 1.1875 C-2 0 -2 0 0 0 Z " fill="#49494A" transform="translate(623,484)"/>
<path d="M0 0 C5.49152542 0.61016949 5.49152542 0.61016949 7.875 2.4375 C9 4 9 4 9 6 C2.35384615 4.52307692 2.35384615 4.52307692 0.5625 1.875 C0.376875 1.25625 0.19125 0.6375 0 0 Z " fill="#2B2B2C" transform="translate(402,443)"/>
<path d="M0 0 C0 0.66 0 1.32 0 2 C-2.1171875 3.5078125 -2.1171875 3.5078125 -4.875 5.125 C-5.77992188 5.66382813 -6.68484375 6.20265625 -7.6171875 6.7578125 C-10 8 -10 8 -12 8 C-12 7.34 -12 6.68 -12 6 C-11.01 6 -10.02 6 -9 6 C-8.67 5.01 -8.34 4.02 -8 3 C-5.07920195 0.92469613 -3.62453269 0 0 0 Z " fill="#1A1A1B" transform="translate(456,592)"/>
<path d="M0 0 C-1.1875 1.5 -1.1875 1.5 -3 3 C-4.66666667 3 -6.33333333 3 -8 3 C-10.76441969 4.40759341 -10.76441969 4.40759341 -13 6 C-13.33 5.34 -13.66 4.68 -14 4 C-4.67586207 -1.55862069 -4.67586207 -1.55862069 0 0 Z " fill="#4F4F50" transform="translate(461,590)"/>
<path d="M0 0 C1.32 0 2.64 0 4 0 C4.33 1.32 4.66 2.64 5 4 C6.2065625 4.185625 6.2065625 4.185625 7.4375 4.375 C8.7059375 4.684375 8.7059375 4.684375 10 5 C10.33 5.66 10.66 6.32 11 7 C4.375 7.25 4.375 7.25 1 5 C1.99 5 2.98 5 4 5 C2.68 3.35 1.36 1.7 0 0 Z " fill="#757576" transform="translate(624,583)"/>
<path d="M0 0 C2.31 0.66 4.62 1.32 7 2 C7 3.32 7 4.64 7 6 C3.47190093 6 2.53184488 5.35723489 0 3 C0 2.01 0 1.02 0 0 Z " fill="#474747" transform="translate(417,452)"/>
<path d="M0 0 C0.99 0.33 1.98 0.66 3 1 C3 1.66 3 2.32 3 3 C5.31 3.66 7.62 4.32 10 5 C10.33 4.34 10.66 3.68 11 3 C13.475 3.99 13.475 3.99 16 5 C16 5.33 16 5.66 16 6 C11.24073469 7.30879796 8.14487471 6.79970026 3.703125 4.96875 C1.48870809 3.70917341 0.67381251 2.44257034 0 0 Z " fill="#737374" transform="translate(685,626)"/>
<path d="M0 0 C0.66 0.33 1.32 0.66 2 1 C1.01 2.485 1.01 2.485 0 4 C1.32 3.67 2.64 3.34 4 3 C3.67 3.66 3.34 4.32 3 5 C-4.41176471 6.29411765 -4.41176471 6.29411765 -7 5 C-4.69 3.35 -2.38 1.7 0 0 Z " fill="#666667" transform="translate(662,457)"/>
<path d="M0 0 C0.33 0.99 0.66 1.98 1 3 C-1.5654594 5.5654594 -3.47686668 5.54046087 -7 6 C-5.9024777 3.00675737 -5.32317108 2.15389099 -2.375 0.75 C-1.59125 0.5025 -0.8075 0.255 0 0 Z " fill="#303031" transform="translate(669,455)"/>
<path d="M0 0 C2.91517292 1.07401108 4.77810176 1.77810176 7 4 C6.01 4.495 6.01 4.495 5 5 C5.33 5.66 5.66 6.32 6 7 C5.401875 6.690625 4.80375 6.38125 4.1875 6.0625 C1.91043228 4.89790296 1.91043228 4.89790296 -1 4 C-0.67 2.68 -0.34 1.36 0 0 Z " fill="#4A4A4B" transform="translate(679,619)"/>
<path d="M0 0 C3.82097239 0.53069061 6.06171403 1.49701566 9 4 C8.67 4.66 8.34 5.32 8 6 C5.0280615 4.87548273 2.66559313 3.77706209 0 2 C0 1.34 0 0.68 0 0 Z " fill="#242424" transform="translate(453,476)"/>
<path d="M0 0 C0.66 0 1.32 0 2 0 C2 0.66 2 1.32 2 2 C3.32 2.66 4.64 3.32 6 4 C6 4.66 6 5.32 6 6 C2.31245243 5.50168276 0.39509338 4.89932357 -2 2 C-1.34 1.34 -0.68 0.68 0 0 Z " fill="#3A3A3A" transform="translate(622,582)"/>
<path d="M0 0 C2.31 0.33 4.62 0.66 7 1 C6.67 1.66 6.34 2.32 6 3 C5.01 2.67 4.02 2.34 3 2 C3 2.66 3 3.32 3 4 C4.32 4.33 5.64 4.66 7 5 C6.01 5.495 6.01 5.495 5 6 C4.01 5.67 3.02 5.34 2 5 C2 4.34 2 3.68 2 3 C1.34 3 0.68 3 0 3 C0 2.01 0 1.02 0 0 Z " fill="#868687" transform="translate(604,572)"/>
<path d="M0 0 C0 0.66 0 1.32 0 2 C-0.66 2 -1.32 2 -2 2 C-1.67 2.99 -1.34 3.98 -1 5 C-3.92824652 5.97608217 -5.95613276 6.08226668 -9 6 C-7.625 4.5 -7.625 4.5 -6 3 C-5.34 3 -4.68 3 -4 3 C-4 2.34 -4 1.68 -4 1 C-2 0 -2 0 0 0 Z " fill="#595959" transform="translate(641,472)"/>
<path d="M0 0 C2.375 0.25 2.375 0.25 5 1 C6.3125 3.0625 6.3125 3.0625 7 5 C4.69 4.34 2.38 3.68 0 3 C0 2.01 0 1.02 0 0 Z " fill="#2B2B2B" transform="translate(640,595)"/>
<path d="M0 0 C0.66 0.33 1.32 0.66 2 1 C0.90554162 1.86657116 -0.20097781 2.71792724 -1.3125 3.5625 C-1.92738281 4.03816406 -2.54226563 4.51382813 -3.17578125 5.00390625 C-3.77777344 5.33261719 -4.37976563 5.66132812 -5 6 C-5.99 5.67 -6.98 5.34 -8 5 C-5.31158141 2.74754119 -3.35358125 1.11786042 0 0 Z " fill="#1A1A1A" transform="translate(408,622)"/>
<path d="M0 0 C0 0.66 0 1.32 0 2 C-2.5614657 4.29648649 -3.47967572 5 -7 5 C-6.67 3.68 -6.34 2.36 -6 1 C-3.92446352 0.4465236 -2.15634036 0 0 0 Z " fill="#2D2D2E" transform="translate(613,492)"/>
<path d="M0 0 C0 0.66 0 1.32 0 2 C-5.41176471 6 -5.41176471 6 -8 6 C-8 5.34 -8 4.68 -8 4 C-7.34 4 -6.68 4 -6 4 C-5.67 3.01 -5.34 2.02 -5 1 C-2 0 -2 0 0 0 Z " fill="#1C1C1D" transform="translate(647,470)"/>
<path d="M0 0 C3.37462715 0.54723683 5.08235 1.0549 8 3 C8 3.66 8 4.32 8 5 C4.75791433 4.64950425 3.38472296 4.43778819 1.1875 1.9375 C0.795625 1.298125 0.40375 0.65875 0 0 Z " fill="#1B1B1B" transform="translate(422,456)"/>
<path d="M0 0 C1.32 0 2.64 0 4 0 C4 0.66 4 1.32 4 2 C4.99 2.33 5.98 2.66 7 3 C4.29120665 4.35439668 1.99066732 4.06501451 -1 4 C-1.33 3.34 -1.66 2.68 -2 2 C-1.34 1.34 -0.68 0.68 0 0 Z " fill="#6A6A6B" transform="translate(400,440)"/>
<path d="M0 0 C0.66 0.33 1.32 0.66 2 1 C1.34 3.31 0.68 5.62 0 8 C-0.66 8 -1.32 8 -2 8 C-2.33 8.99 -2.66 9.98 -3 11 C-3.32613618 6.32538149 -2.70582788 3.83325617 0 0 Z " fill="#646465" transform="translate(379,430)"/>
<path d="M0 0 C-4.625 4 -4.625 4 -8 4 C-8 3.34 -8 2.68 -8 2 C-3.61016949 -1.20338983 -3.61016949 -1.20338983 0 0 Z " fill="#1C1C1C" transform="translate(419,617)"/>
<path d="M0 0 C1.32 0.66 2.64 1.32 4 2 C4 2.99 4 3.98 4 5 C1.5625 4.625 1.5625 4.625 -1 4 C-1.33 3.34 -1.66 2.68 -2 2 C-1.34 2 -0.68 2 0 2 C0 1.34 0 0.68 0 0 Z " fill="#484848" transform="translate(481,492)"/>
<path d="M0 0 C0 0.66 0 1.32 0 2 C-3 4 -3 4 -7 4 C-6.67 3.01 -6.34 2.02 -6 1 C-3 0 -3 0 0 0 Z " fill="#242424" transform="translate(660,462)"/>
<path d="M0 0 C0 0.99 0 1.98 0 3 C-1.98 3.66 -3.96 4.32 -6 5 C-5.6875 3.0625 -5.6875 3.0625 -5 1 C-2 0 -2 0 0 0 Z " fill="#262626" transform="translate(677,450)"/>
<path d="M0 0 C0 0.66 0 1.32 0 2 C-1.32 2.33 -2.64 2.66 -4 3 C-4 3.66 -4 4.32 -4 5 C-5.32 4.67 -6.64 4.34 -8 4 C-2.25 0 -2.25 0 0 0 Z " fill="#191919" transform="translate(476,579)"/>
<path d="M0 0 C0 0.99 0 1.98 0 3 C-4.22222222 6 -4.22222222 6 -7 6 C-7 5.34 -7 4.68 -7 4 C-6.01 4 -5.02 4 -4 4 C-3.67 3.01 -3.34 2.02 -3 1 C-2.01 0.67 -1.02 0.34 0 0 Z " fill="#171717" transform="translate(627,482)"/>
<path d="M0 0 C2.02045442 0.60183749 4.02111039 1.27306096 6 2 C6.33 2.66 6.66 3.32 7 4 C4.36 4 1.72 4 -1 4 C-1.33 3.34 -1.66 2.68 -2 2 C-1.34 1.34 -0.68 0.68 0 0 Z " fill="#59595A" transform="translate(451,473)"/>
<path d="M0 0 C0 0.66 0 1.32 0 2 C-2.5 3.625 -2.5 3.625 -5 5 C-5 4.34 -5 3.68 -5 3 C-5.66 2.67 -6.32 2.34 -7 2 C-4.35261084 0.5393715 -3.10551666 0 0 0 Z " fill="#2B2B2B" transform="translate(694,440)"/>
</svg>
