<?xml version="1.0" standalone="no"?>
<!DOCTYPE svg PUBLIC "-//W3C//DTD SVG 20010904//EN"
 "http://www.w3.org/TR/2001/REC-SVG-20010904/DTD/svg10.dtd">
<svg version="1.0" xmlns="http://www.w3.org/2000/svg"
 width="25.000000pt" height="25.000000pt" viewBox="0 0 25.000000 25.000000"
 preserveAspectRatio="xMidYMid meet">

<g transform="translate(0.000000,25.000000) scale(0.100000,-0.100000)"
fill="#000000" stroke="none">
<path d="M27 194 c-4 -4 -7 -36 -7 -71 l0 -64 22 21 c23 21 53 26 62 11 7 -11
-23 -37 -49 -44 -11 -2 20 -4 70 -4 71 1 76 2 26 4 l-64 4 33 35 c19 18 39 34
46 34 7 0 24 -14 39 -31 l26 -32 -3 69 -3 69 -95 3 c-53 1 -99 0 -103 -4z m73
-39 c0 -8 -4 -15 -10 -15 -5 0 -10 7 -10 15 0 8 5 15 10 15 6 0 10 -7 10 -15z"/>
</g>
</svg>
